<?xml version="1.0" encoding="UTF-8" standalone="no"?>
<!-- Created with Inkscape (http://www.inkscape.org/) -->

<svg
   width="210mm"
   height="297mm"
   viewBox="0 0 210 297"
   version="1.1"
   id="svg1"
   inkscape:version="1.3 (0e150ed, 2023-07-21)"
   sodipodi:docname="sl-icon.svg"
   xmlns:inkscape="http://www.inkscape.org/namespaces/inkscape"
   xmlns:sodipodi="http://sodipodi.sourceforge.net/DTD/sodipodi-0.dtd"
   xmlns="http://www.w3.org/2000/svg"
   xmlns:svg="http://www.w3.org/2000/svg">
  <sodipodi:namedview
     id="namedview1"
     pagecolor="#ffffff"
     bordercolor="#000000"
     borderopacity="0.25"
     inkscape:showpageshadow="2"
     inkscape:pageopacity="0.0"
     inkscape:pagecheckerboard="0"
     inkscape:deskcolor="#d1d1d1"
     inkscape:document-units="mm"
     inkscape:zoom="0.60824059"
     inkscape:cx="410.19952"
     inkscape:cy="591.87105"
     inkscape:window-width="1728"
     inkscape:window-height="1057"
     inkscape:window-x="0"
     inkscape:window-y="32"
     inkscape:window-maximized="1"
     inkscape:current-layer="layer1" />
  <defs
     id="defs1" />
  <g
     inkscape:label="Layer 1"
     inkscape:groupmode="layer"
     id="layer1">
    <path
       style="fill:#000000;fill-opacity:1;stroke-width:0.574341"
       d="m 85.105599,170.72618 c -1.1558,-0.355 -1.9859,-1.1972 -2.3334,-2.3679 -0.1449,-0.4875 -0.1611,-2.4976 -0.1611,-19.8554 0,-17.3578 0.016,-19.3678 0.1611,-19.8553 0.353701,-1.1914 1.1818,-2.0189 2.374301,-2.373 0.484899,-0.1441 2.524699,-0.1606 19.8535,-0.1606 17.3288,0 19.3684,0.016 19.8534,0.1606 1.1926,0.3541 2.0206,1.1816 2.3744,2.373 0.1448,0.4875 0.1611,2.4975 0.1611,19.8553 0,17.3289 -0.016,19.3686 -0.1604,19.8534 -0.3541,1.1928 -1.1818,2.0207 -2.3731,2.3746 -0.4879,0.1448 -2.4882,0.1603 -19.8991,0.154 -16.8895,-0.012 -19.4197,-0.026 -19.850701,-0.1587 z m 11.5313,-1.0363 c -0.053,-0.048 -0.438,-0.2147 -0.8559,-0.37 -2.1438,-0.7964 -5.8548,-2.9783 -7.8006,-4.5865 -1.7683,-1.4613 -3.0796,-3.0678 -3.8619,-4.731 l -0.3817,-0.8115 -0.012,4.1606 c -0.012,3.5018 0.019,4.2454 0.1536,4.6973 0.2158,0.7263 0.7488,1.2838 1.463,1.5303 0.5178,0.1787 0.9253,0.1921 5.9706,0.1952 3.0552,0 5.373,-0.034 5.3187,-0.085 z m 27.921601,-0.075 c 0.742,-0.2203 1.3325,-0.8107 1.5529,-1.5529 0.1412,-0.4757 0.1632,-1.2877 0.1632,-6.0524 0,-3.4141 -0.037,-5.5027 -0.097,-5.5027 -0.053,0 -2.8373,1.4643 -6.1874,3.2542 -3.9318,2.1006 -6.126,3.2196 -6.1893,3.1561 -0.1997,-0.1996 -17.922101,-33.5079 -17.882101,-33.6085 0.024,-0.058 0.8558,-0.5374 1.8512,-1.0668 l 1.809701,-0.9624 -6.7846,-0.026 c -7.7136,-0.03 -7.5587,-0.043 -8.3219,0.7201 -0.7928,0.7929 -0.7482,-0.026 -0.7482,13.7433 0,11.5763 0.012,12.2223 0.1773,12.2147 0.098,-0.012 2.0562,1.1087 4.3526,2.4739 l 4.1754,2.4821 0.105,0.4862 c 0.3084,1.4299 1.6826,2.7377 3.4361,3.2698 1.268299,0.3851 2.9471,-0.014 2.778099,-0.6605 -0.096,-0.3651 -1.420299,-1.4913 -3.0104,-2.5592 -5.1709,-3.4726 -7.6427,-5.7923 -8.4731,-7.9517 -0.2817,-0.733 -0.3771,-2.0663 -0.1961,-2.7421 0.4349,-1.6233 1.7767,-2.9976 3.8793,-3.9736 1.1089,-0.5146 2.0444,-0.7104 3.3947,-0.7104 2.9755,0 5.765301,1.0293 10.114701,3.7318 l 1.2318,0.7655 2.9106,5.4594 2.9108,5.4593 -0.1229,0.5484 c -0.068,0.3018 -0.1408,0.5486 -0.163,0.5486 -0.023,0 -1.9413,-1.1314 -4.2646,-2.5144 l -4.2242,-2.5145 -0.1708,-0.6238 c -0.2912,-1.0639 -0.951,-1.8566 -2.1497,-2.583 -0.645801,-0.3912 -1.303501,-0.6222 -2.080201,-0.7308 -0.4822,-0.067 -1.6102,0.1783 -1.8316,0.399 -0.3643,0.3629 0.3345,1.0293 3.0994,2.9552 3.788401,2.6388 5.445301,4.0199 6.854501,5.7137 1.3165,1.5821 1.733,2.5576 1.7306,4.0523 0,0.8674 -0.034,1.0297 -0.3223,1.6449 -0.4952,1.0536 -1.6807,2.2045 -3.0953,3.0045 -0.3203,0.1812 -0.5825,0.349 -0.5825,0.3728 0,0.024 4.4595,0.043 9.9099,0.043 8.8163,0 9.9703,-0.018 10.4591,-0.1632 z m -4.0706,-16.6576 c 3.3732,-1.7922 3.6965,-1.9432 3.8147,-1.7815 0.071,0.097 0.5324,0.9376 1.0252,1.8674 l 0.8961,1.6908 0.026,-12.611 c 0.03,-14.2135 0.073,-13.3533 -0.7198,-14.1458 -0.7891,-0.7891 -0.097,-0.7483 -12.6969,-0.7483 -6.5438,0 -11.1761,0.037 -11.1761,0.091 0,0.083 14.338,27.0297 14.6555,27.5422 0.1062,0.171 0.1867,0.2071 0.3161,0.1413 0.096,-0.048 1.8324,-0.9694 3.8594,-2.0462 z"
       id="path31"
       sodipodi:nodetypes="ssscssssscsssssssccsscssssssscscssscscssssssssscccssscssssssccssssscssccssssscc" />
  </g>
</svg>
